<svg xmlns="http://www.w3.org/2000/svg" width="27" height="27" viewBox="0 0 27 27">
<path fill="currentColor" d="M13.3333333,12 C12.5969537,12 12,12.5969537 12,13.3333333 C12,14.069713 12.5969537,14.6666667 13.3333333,14.6666667 C14.069713,14.6666667 14.6666667,14.069713 14.6666667,13.3333333 C14.6666667,12.5969537 14.069713,12 13.3333333,12 M13.3333333,19.3333333 C10,19.3333333 7.33333333,16.6666667 7.33333333,13.3333333 C7.33333333,10 10,7.33333333 13.3333333,7.33333333 C16.6666667,7.33333333 19.3333333,10 19.3333333,13.3333333 C19.3333333,16.6666667 16.6666667,19.3333333 13.3333333,19.3333333 M13.3333333,0 C5.96953667,0 0,5.96953667 0,13.3333333 C0,16.8695532 1.40475787,20.2609387 3.90524292,22.7614237 C6.40572796,25.2619088 9.79711347,26.6666667 13.3333333,26.6666667 C20.69713,26.6666667 26.6666667,20.69713 26.6666667,13.3333333 C26.6666667,5.96953667 20.69713,0 13.3333333,0"/></svg>
