<svg xmlns="http://www.w3.org/2000/svg" width="80" height="80" viewBox="0 0 80 80"><defs><style>.a{fill:#fff;opacity:0;}.b{fill:#001736;}</style></defs><g transform="translate(-410)"><rect class="a" width="80" height="80" transform="translate(410)"/><g transform="translate(419 12)"><path class="b" d="M614.02,564.7a12.007,12.007,0,0,0-2.668-6.1,1.774,1.774,0,1,0-2.741,2.228,8.358,8.358,0,0,1,1.888,4.289,9,9,0,0,1-2.194,6.864,1.774,1.774,0,0,0-.394,1.334l.6,4.756-4.929-2.028a1.788,1.788,0,0,0-1.261-.04,15.627,15.627,0,0,1-3.115.734,14.507,14.507,0,0,1-8.731-1.547,1.776,1.776,0,0,0-1.708,3.115,18.069,18.069,0,0,0,10.886,1.961,18.872,18.872,0,0,0,3.162-.667l7.137,3a1.774,1.774,0,0,0,2.448-1.861l-.894-7.07A12.353,12.353,0,0,0,614.02,564.7Z" transform="translate(-551.695 -526.943)"/><path class="b" d="M89.68,107.571c0-13.073-12.74-23.706-28.408-23.706S32.87,94.5,32.87,107.571a21.386,21.386,0,0,0,6.67,15.215v13.787a1.774,1.774,0,0,0,2.668,1.541l12.833-7.43a33.638,33.638,0,0,0,6.23.6C76.94,131.277,89.68,120.645,89.68,107.571Zm-28.4,20.157a30.309,30.309,0,0,1-6.177-.667,1.788,1.788,0,0,0-1.247.2L43.069,133.5V122.032a1.774,1.774,0,0,0-.56-1.294,17.987,17.987,0,0,1-6.09-13.167c0-11.112,11.152-20.157,24.853-20.157s24.859,9.045,24.859,20.157S74.979,127.728,61.278,127.728Z" transform="translate(-32.87 -83.866)"/><path class="b" d="M199.952,407.926m-3.548,0a3.548,3.548,0,1,0,3.548-3.548A3.548,3.548,0,0,0,196.4,407.926Z" transform="translate(-185.751 -383.5)"/><path class="b" d="M418.064,407.926m-3.549,0a3.549,3.549,0,1,0,3.549-3.548A3.548,3.548,0,0,0,414.515,407.926Z" transform="translate(-389.656 -383.5)"/><path class="b" d="M636.073,407.926m-3.548,0a3.548,3.548,0,1,0,3.548-3.548A3.548,3.548,0,0,0,632.525,407.926Z" transform="translate(-593.465 -383.5)"/></g></g></svg>