<svg xmlns="http://www.w3.org/2000/svg" width="80" height="80" viewBox="0 0 80 80"><defs><style>.a{fill:#fff;opacity:0;}.b{fill:#001736;stroke:#000;stroke-width:0.5px;}</style></defs><g transform="translate(-410)"><rect class="a" width="80" height="80" transform="translate(410)"/><path class="b" d="M102.911,48.125a.424.424,0,0,0-.35-.35,29.464,29.464,0,0,0-9.186-.928,34.048,34.048,0,0,0-5.411.719,39.793,39.793,0,0,0-13.5,5.773,51.425,51.425,0,0,0-10.624,9.438.517.517,0,0,1-.443.2,21.44,21.44,0,0,0-2.515.1,19.133,19.133,0,0,0-7.04,2.1,28.7,28.7,0,0,0-7.089,5.54c-.16.16-.055.215.068.3.646.43,1.291.867,1.937,1.3q4.86,3.256,9.721,6.517c.141.1.283.154.16.4a6.609,6.609,0,0,0-.5,4.58,11.046,11.046,0,0,0,7.7,8.343,7.079,7.079,0,0,0,5.361-.2c.221-.1.307-.062.43.123q1.706,2.573,3.425,5.14,2.195,3.292,4.4,6.591c.1.16.166.289.369.068.381-.418.793-.8,1.187-1.205a26.369,26.369,0,0,0,4.458-5.958,19.127,19.127,0,0,0,2.177-9.555.572.572,0,0,1,.209-.5,55.4,55.4,0,0,0,5.2-5.134,45.443,45.443,0,0,0,7.6-11.59,35.644,35.644,0,0,0,3.228-14.387c-.012-.289-.031-.572-.037-.861A27.354,27.354,0,0,0,102.911,48.125ZM98.275,69.5a42.718,42.718,0,0,1-6.566,10.009,53.9,53.9,0,0,1-6.161,6.038.722.722,0,0,0-.3.652,20.42,20.42,0,0,1-.375,5.435,17.8,17.8,0,0,1-3.271,6.775q-.655.858-1.365,1.66c-.252.277-.252.277-.455-.025q-3.32-4.971-6.634-9.942c-.246-.369-.5-.726-.726-1.1-.123-.209-.221-.252-.449-.123A17.39,17.39,0,0,1,70.024,89.9a5,5,0,0,1-3.689-.062,8.847,8.847,0,0,1-5.786-6.13,4.677,4.677,0,0,1,.5-3.953c.252-.4.443-.83.695-1.23.129-.209.068-.3-.117-.424q-5.238-3.5-10.464-7.009c-.2-.135-.406-.283-.609-.412-.135-.086-.172-.148-.037-.271a19.138,19.138,0,0,1,8.626-4.66,18.834,18.834,0,0,1,5.22-.375.68.68,0,0,0,.621-.283,49.909,49.909,0,0,1,11.036-9.93,37.15,37.15,0,0,1,12.536-5.288,31.661,31.661,0,0,1,5.534-.682,27.4,27.4,0,0,1,6.53.553.375.375,0,0,1,.338.35,26.246,26.246,0,0,1,.559,5.46A33.152,33.152,0,0,1,98.275,69.5ZM60.813,90.235A3.14,3.14,0,0,0,58,90.143,4.918,4.918,0,0,0,55.366,92.8a26.462,26.462,0,0,0-1.74,5.355c-.068.283.086.252.271.215a26.961,26.961,0,0,0,3.025-.781A11.589,11.589,0,0,0,60.291,96a4.336,4.336,0,0,0,1.832-3.228A2.667,2.667,0,0,0,60.813,90.235Zm-1.058,2.4A1.85,1.85,0,0,1,59.018,94a6.852,6.852,0,0,1-2.054,1.07,6.52,6.52,0,0,1,1.211-2.275,1.723,1.723,0,0,1,1.193-.56C59.676,92.227,59.768,92.319,59.756,92.639Zm23.05-31.061a4.725,4.725,0,1,0,4.728,4.728A4.753,4.753,0,0,0,82.806,61.578Zm-.012,7.1a2.361,2.361,0,1,1,2.373-2.355A2.354,2.354,0,0,1,82.794,68.673Z" transform="translate(374.402 -35.724)"/></g></svg>
