<svg xmlns="http://www.w3.org/2000/svg" width="48.315" height="69.649" viewBox="0 0 48.315 69.649"><g transform="translate(0)"><path fill="currentColor" d="M443.852,360.649a7.53,7.53,0,1,0,7.53,7.53A7.538,7.538,0,0,0,443.852,360.649Zm0,9.412a1.882,1.882,0,1,1,1.882-1.882A1.885,1.885,0,0,1,443.852,370.061Z" transform="translate(-419.695 -340.884)"/><path fill="currentColor" d="M313.806,203.622v-8.5c0-7.763-2.226-13.426-6.438-19.936a40.985,40.985,0,0,0-14-13.191,40.994,40.994,0,0,0-14,13.191c-4.211,6.51-6.438,12.173-6.438,19.936v8.5l-3.717,7.482v8.663h48.315V211.1Zm-1.931,10.5H274.854v-.677l3.717-7.482V195.126c0-6.672,1.913-11.274,5.532-16.869a34.582,34.582,0,0,1,9.262-9.578,34.586,34.586,0,0,1,9.262,9.578c3.619,5.595,5.532,10.2,5.532,16.869V205.96l3.717,7.482v.678ZM293.365,225.4a22.724,22.724,0,0,1-5.365-4.1h-8.029c3.539,4.116,7.174,7.47,12.206,9.8l1.188.551,1.188-.551c5.031-2.333,8.666-5.687,12.2-9.8h-8.028A22.724,22.724,0,0,1,293.365,225.4Z" transform="translate(-269.207 -161.999)"/></g></svg>
